<svg id="Layer_1" data-name="Layer 1" xmlns="http://www.w3.org/2000/svg" viewBox="0 0 490.19 490.01"><title>fa-sword</title><path d="M47.19,177.18c.17-7.12,7.26-13.19,14.3-12,23.79,3.92,47.57,7.93,71.37,11.88a11.31,11.31,0,0,1,6.4,3.47q138.6,138.57,277.33,277c2.57,2.56,2.89,3.9.12,6.63q-35.35,35-70.37,70.34c-2.35,2.37-3.68,2.74-6.27.15Q201.31,395.54,62.35,256.6a9.15,9.15,0,0,1-2.87-5.08q-6.07-36.44-12.17-72.84A12.63,12.63,0,0,1,47.19,177.18Z" transform="translate(-47.06 -165)"/><path d="M215.45,625.73c-3.52.17-6.47-1.44-9.4-3-16.74-8.94-33.5-17.82-50.14-26.93-3.08-1.68-4.9-1.69-7.52,1-17.06,17.35-34.33,34.49-51.55,51.69-8.61,8.6-16.52,8.72-25.08.3Q62,639.11,52.32,629.3c-7-7.19-7-15.76.12-22.94q26.43-26.6,53.07-53c2.27-2.25,2.62-3.78,1-6.69-8.82-16-17.36-32.24-26-48.37-6.21-11.59-5.56-16.41,3.57-25.68,4-4,7.89-8.13,11.94-12.1,8.07-7.93,16.55-7.94,24.53,0,6.28,6.21,12.69,12.3,18.66,18.8,2.95,3.21,4.56,2.71,7.37-.15,14.47-14.76,29.23-29.23,43.71-44,2.68-2.71,4.18-3,7-.09q34.65,35,69.65,69.65c2.86,2.83,2.62,4.33-.1,7-14.73,14.49-29.2,29.24-44,43.71-2.86,2.81-3.36,4.42-.15,7.37,6.61,6.09,12.84,12.6,19.15,19,7.28,7.41,7.44,16,.27,23.46-5.29,5.54-10.83,10.86-16.34,16.18A15.39,15.39,0,0,1,215.45,625.73Z" transform="translate(-47.06 -165)"/><path d="M537.13,179c-1.68,10-3.5,20.81-5.34,31.63-2.21,12.95-4.49,25.9-6.6,38.87a13.46,13.46,0,0,1-3.94,7.77q-63.54,63.38-126.88,126.93c-2.94,3-4.48,3.5-7.74.19q-34.39-34.89-69.26-69.31c-2.77-2.74-2.79-4.23,0-7Q381.31,244.42,445,180.51a12,12,0,0,1,6.89-3.57q35-5.77,69.89-11.65C530.05,163.9,537.15,169.81,537.13,179Z" transform="translate(-47.06 -165)"/><path d="M475.62,454.8a15.65,15.65,0,0,1,11.94,5c5.16,5.2,10.36,10.37,15.42,15.67,5.71,6,6.57,11.73,2.66,19.12-9.1,17.21-18.21,34.41-27.62,51.44-1.93,3.5-1.34,5.27,1.32,7.89,17.08,16.83,34,33.84,50.94,50.82,9.27,9.29,9.29,16.89.1,26.14q-9,9-18,18c-8.1,8-16.18,8.15-24.35,0q-26.07-25.86-51.88-52c-2.73-2.77-4.57-3-7.92-1.12-15.87,8.77-31.91,17.23-47.89,25.79-11.36,6.08-16.17,5.4-25.28-3.55-4.39-4.33-8.88-8.56-13.14-13-6.71-7-6.83-15.9,0-22.71Q403.08,521,464.44,459.74C467.63,456.56,471.34,454.55,475.62,454.8Z" transform="translate(-47.06 -165)"/></svg>